Coordinates
version=1
nRows=16
nColumns=36
inDegrees=yes

Units are S.I. units (second, meters, Newtons, ...)
If the header above contains a line with 'inDegrees', this indicates whether rotational values are in degrees (yes) or radians (no).

endheader
time	pelvis_tilt	pelvis_list	pelvis_rotation	pelvis_tx	pelvis_ty	pelvis_tz	hip_flexion_r	hip_adduction_r	hip_rotation_r	knee_angle_r	knee_angle_r_beta	ankle_angle_r	subtalar_angle_r	mtp_angle_r	hip_flexion_l	hip_adduction_l	hip_rotation_l	knee_angle_l	knee_angle_l_beta	ankle_angle_l	subtalar_angle_l	mtp_angle_l	lumbar_extension	lumbar_bending	lumbar_rotation	arm_flex_r	arm_add_r	arm_rot_r	elbow_flex_r	pro_sup_r	arm_flex_l	arm_add_l	arm_rot_l	elbow_flex_l	pro_sup_l
      5.12916670	    -12.46280968	      2.53161082	    -44.78890598	      0.05404730	      0.90404586	     -0.04074918	     15.75143645	      4.77440252	     33.82892418	      5.96519119	      0.10411223	      9.03951503	      2.09540007	     -7.49999987	     27.72419847	    -11.37824760	     15.50670626	     34.36842110	      0.59984211	      5.40579905	    -28.61419008	     -7.49999987	     -5.62122760	      5.98868991	      2.93643928	     15.54724069	     -5.43425554	     31.39051509	     33.30176364	     77.32700969	      3.12561225	     -5.50625048	     14.40750021	     21.23962305	     79.74570067
      5.13333330	    -12.42969712	      3.10429079	    -46.21910387	      0.04803584	      0.90879601	     -0.04426073	     16.98689670	      4.71487882	     34.11833065	      7.00433243	      0.12224866	      9.04635848	      2.78086782	     -7.49999987	     27.76864154	    -11.39691798	     14.13751908	     34.33601717	      0.59927655	      5.29162597	    -29.11769712	     -7.49999987	     -5.82137565	      5.70421915	      3.62704183	     16.06330741	     -5.62995670	     31.40855736	     33.22651537	     77.65049563	      3.22636793	     -5.57679640	     14.67612411	     21.47585755	     80.12436105
      5.13750000	    -12.20648460	      3.62366292	    -48.04626475	      0.04220989	      0.91371463	     -0.04765976	     18.07767766	      4.66346645	     34.46339585	      7.80522592	      0.13622689	      9.23676765	      4.82134806	     -7.49999987	     27.69678994	    -11.45307524	     12.59361064	     34.39043110	      0.60022625	      4.78681940	    -29.70812979	     -7.49999987	     -5.58708478	      5.40613943	      3.90613465	     16.87095536	     -5.34672766	     31.70513942	     32.17253629	     78.39991980	      3.29991836	     -5.64271151	     15.18512326	     21.15574913	     80.92935970
      5.14166670	    -11.75364387	      3.96910822	    -49.87817985	      0.04132397	      0.92032971	     -0.04638259	     18.56111118	      4.59708035	     35.07244817	      8.09892202	      0.14135286	      8.96356347	      6.25206424	     -7.49999987	     26.96136874	    -11.55963734	     10.88967794	     33.88129002	      0.59134007	      4.09682731	    -30.21418195	     -7.49999987	     -5.72919058	      4.86955151	      4.35068848	     17.49582470	     -5.18246685	     31.81389035	     31.65996049	     78.68145084	      3.38114023	     -5.69618645	     15.19728557	     20.99054295	     81.16086528
      5.14583330	    -11.37935379	      4.30771258	    -51.58034494	      0.04030661	      0.91404929	     -0.04635058	     19.22731794	      4.54835976	     35.39428940	      8.61610028	      0.15037932	      9.49896413	      8.69033080	     -7.49999987	     26.30683547	    -11.68156434	      9.40568241	     33.54404982	      0.58545411	      4.02923423	    -30.85511275	     -7.49999987	     -6.14227983	      4.33240649	      4.72701766	     18.41922199	     -4.92515908	     32.21926982	     31.02787589	     78.60041368	      3.54765891	     -5.87834527	     15.01811288	     20.76046622	     80.73505087
      5.15000000	    -11.41757123	      4.63609790	    -53.14401329	      0.03878019	      0.90433677	     -0.04478186	     20.22812655	      4.98149556	     35.42507287	      9.57653095	      0.16714200	     10.42272619	     10.09845974	     -7.49999987	     26.14697390	    -12.18911309	      7.76035749	     33.67260664	      0.58769785	      4.47943693	    -31.31134286	     -7.49999987	     -5.87444197	      4.13528985	      5.30723264	     18.79306819	     -4.70672787	     32.29746019	     30.48718690	     77.70268321	      3.73074679	     -6.06435820	     14.81469423	     20.23097022	     79.64757447
      5.15416670	    -11.29778514	      4.71600551	    -54.71114878	      0.03767943	      0.90754091	     -0.04438551	     20.76025969	      5.43977971	     35.56854843	     10.46557690	      0.18265877	     11.02484439	     10.89667220	     -7.49999987	     25.66649335	    -12.75725975	      6.04084098	     33.77776778	      0.58953326	      4.97044634	    -31.29824842	     -7.49999987	     -6.06047174	      3.98045373	      5.71355423	     19.51744908	     -4.39817442	     33.06396399	     29.64687255	     79.69196377	      3.73612893	     -6.51611074	     14.55064285	     20.30437426	     81.03609280
      5.15833330	    -11.18938769	      4.72433543	    -55.55176723	      0.03724385	      0.91203861	     -0.04404514	     20.94970315	      5.67619489	     35.67476757	     10.87864509	      0.18986817	     11.56722155	     11.38314299	     -7.49999987	     25.32077312	    -13.12479041	      4.83242746	     33.73655019	      0.58881388	      4.98960299	    -31.38841547	     -7.49999987	     -6.27870975	      3.80353641	      6.20741642	     19.81387877	     -4.26977529	     32.88262418	     29.23256813	     79.70575187	      4.00346983	     -6.86328611	     14.28773740	     20.18666854	     81.02252743
      5.16250000	    -11.04793013	      4.82246493	    -56.64218164	      0.03663614	      0.91098497	     -0.04367297	     21.14540303	      5.85548867	     35.46731828	     11.28927330	      0.19703499	     11.32043433	     12.41220979	     -7.49999987	     24.78336246	    -13.36802812	      3.58181097	     33.61294728	      0.58665660	      5.01679535	    -31.48953840	     -7.49999987	     -6.31289467	      3.56892920	      6.58538222	     20.31986597	     -3.67427047	     32.66624108	     28.13790126	     78.40549554	      4.27141842	     -7.19834541	     13.70880531	     19.81288890	     79.51265986
      5.16666670	    -10.75250725	      4.99716923	    -57.61420796	      0.03624650	      0.91817512	     -0.04307648	     21.07965657	      5.71829561	     35.69334356	     11.15400767	      0.19467416	     10.48317996	     13.17427979	     -7.49999987	     23.80031596	    -13.36874905	      2.27205753	     32.60992728	      0.56915060	      4.57763703	    -31.40749697	     -7.49999987	     -6.07984342	      3.12121504	      6.98051730	     20.53160903	     -3.24584980	     32.62885987	     27.42549104	     78.44189036	      4.56386392	     -7.54677267	     13.49666456	     19.51895592	     79.49186970
      5.17083330	    -10.29872575	      4.92760198	    -58.35033095	      0.03624957	      0.91605828	     -0.04260759	     20.67288967	      5.51469838	     36.18944069	     10.90847475	      0.19038880	     10.20319556	     13.59054390	     -7.49999987	     22.83842462	    -13.23950828	      1.20975092	     31.97688644	      0.55810195	      4.10045211	    -31.51561444	     -7.49999987	     -6.27784776	      2.72337667	      6.81714307	     21.02082939	     -2.43000077	     32.78845918	     26.05299684	     77.62323999	      4.69764049	     -7.92891835	     12.67540256	     18.99701398	     78.17406719
      5.17500000	    -10.32638465	      5.52877659	    -58.91630998	      0.03641213	      0.91850447	     -0.04182022	     21.12198131	      5.37805389	     36.87454365	     10.61995988	      0.18535327	      9.99254490	     13.91583009	     -7.49999987	     22.90665766	    -13.12485587	      0.39444358	     31.52037791	      0.55013438	      3.41387513	    -31.80844022	     -7.49999987	     -5.70753559	      2.28978275	      6.79068890	     20.74460812	     -2.02781248	     32.15869645	     25.92689985	     75.55183360	      4.33051647	     -8.39212092	     12.06289529	     19.50732670	     75.88951071
      5.17916670	    -10.19951248	      5.29878435	    -58.96762551	      0.03700419	      0.91767822	     -0.04207633	     20.75304622	      5.35741234	     37.18711052	     10.36656102	      0.18093062	      9.95131880	     14.23889518	     -7.49999987	     22.48121917	    -13.17920657	      0.03942863	     31.27653089	      0.54587844	      3.87046022	    -31.25167175	     -7.49999987	     -6.38557878	      2.13052405	      6.15041980	     21.36608674	     -1.38975918	     32.45232247	     24.83853893	     75.70908553	      4.85892614	     -8.75909615	     12.21565296	     18.58233560	     75.63437679
      5.18333330	    -10.15462704	      5.65633535	    -59.43852985	      0.03698903	      0.91454261	     -0.04164674	     21.15593229	      5.28639186	     37.51601204	     10.53811021	      0.18392472	     10.40763699	     14.66323656	     -7.49999987	     22.50743641	    -13.18530483	     -0.85704196	     31.12832674	      0.54329179	      3.91738228	    -31.12120934	     -7.49999987	     -6.34836076	      1.73784277	      5.93242948	     21.51251594	     -0.83229608	     31.78158674	     24.40952201	     75.78637740	      4.69997975	     -9.10955923	     11.93714144	     18.71153334	     75.12668934
      5.18750000	    -10.19662778	      5.98795704	    -60.06511285	      0.03701633	      0.91313433	     -0.04163986	     21.65743883	      5.38419836	     37.79891249	     10.82726980	      0.18897151	     10.85602019	     15.01595898	     -7.49999987	     22.60853009	    -13.24884479	     -1.44943784	     31.15238719	      0.54371173	      4.17336721	    -31.22888443	     -7.49999987	     -6.38228649	      1.43142663	      5.84025452	     21.67588590	     -0.35966849	     31.38233433	     24.10913561	     75.16434815	      4.52283249	     -9.37513844	     11.60772349	     18.77437877	     74.12408562
      5.19166670	    -10.29338265	      6.16839669	    -60.30457521	      0.03726686	      0.91958034	     -0.04120848	     21.89263368	      5.40581261	     37.91882652	     10.89766775	      0.19020018	     10.73360440	     14.97518935	     -7.49999987	     22.56666061	    -13.33316951	     -1.94724779	     30.84325334	      0.53831632	      4.06137795	    -31.20102917	     -7.49999987	     -6.53156110	      1.27177773	      5.49056289	     21.83138476	      0.19088148	     31.22527493	     23.79865734	     75.25331526	      4.72717028	     -9.78656038	     11.66828576	     18.60053026	     74.20338579
